<?xml version="1.0" ?><!DOCTYPE svg  PUBLIC '-//W3C//DTD SVG 1.1//EN'  'http://www.w3.org/Graphics/SVG/1.1/DTD/svg11.dtd'><svg height="8.4666mm" style="shape-rendering:geometricPrecision; text-rendering:geometricPrecision; image-rendering:optimizeQuality; fill-rule:evenodd; clip-rule:evenodd" version="1.1" viewBox="0 0 847 847" width="8.4666mm" xml:space="preserve" xmlns="http://www.w3.org/2000/svg" xmlns:xlink="http://www.w3.org/1999/xlink"><defs><style type="text/css">
   <![CDATA[
    .fil1 {fill:#FEFEFE}
    .fil0 {fill:#01A1EE}
   ]]>
  </style></defs><g id="Layer_x0020_1"><circle class="fil0" cx="423" cy="423" r="342"/><path class="fil1" d="M561 610c-36,11 -66,14 -94,11 -28,-4 -55,-14 -85,-31l-7 -4 2 -8 44 -135 4 -11 10 5c27,15 51,24 76,27 25,3 52,0 85,-10l18 -5 -6 17 -40 137 -2 6 -5 1zm-213 -38c-25,-12 -50,-18 -74,-18 -25,-1 -49,4 -71,14l-20 9 6 -21 41 -137 1 -4 3 -2c24,-14 51,-20 78,-19 29,1 59,10 88,24l8 4 -3 8 -43 136 -4 11 -10 -5zm-105 -198l37 -125 1 -4 4 -2c24,-14 51,-19 79,-18l0 0c30,1 60,11 90,26l8 3 -3 9 -42 131 -4 11 -10 -5c-25,-12 -50,-19 -74,-21 -27,-2 -52,1 -74,8l-18 6 6 -19zm246 -104c26,14 50,22 74,25 25,2 51,-1 83,-10l18 -6 -5 18 -40 133 -1 5 -5 1c-36,11 -65,14 -93,11 -27,-3 -53,-13 -82,-28l-8 -4 3 -8 42 -131 4 -12 10 6z"/></g></svg>